<svg width="32" height="36" viewBox="0 0 32 36" fill="none" xmlns="http://www.w3.org/2000/svg">
<path d="M31.4521 17.0547C31.3161 20.2214 30.5306 22.7386 29.0957 24.6064C27.6732 26.4619 25.7559 27.3896 23.3438 27.3896C22.2799 27.3896 21.3584 27.1608 20.5791 26.7031C19.8122 26.2454 19.2308 25.5898 18.835 24.7363C17.598 26.4681 15.9837 27.334 13.9922 27.334C12.1862 27.334 10.7884 26.5732 9.79883 25.0518C8.80924 23.5303 8.43815 21.5202 8.68555 19.0215C8.9082 16.9805 9.42155 15.1683 10.2256 13.585C11.042 11.9893 12.0687 10.7646 13.3057 9.91113C14.5426 9.05762 15.8786 8.63086 17.3135 8.63086C19.0824 8.63086 20.5915 9.03906 21.8408 9.85547L23.0098 10.6533L22.0635 21.3779C21.9398 22.3551 22.0449 23.1035 22.3789 23.623C22.7253 24.1426 23.2695 24.4023 24.0117 24.4023C25.1497 24.4023 26.1022 23.7406 26.8691 22.417C27.6361 21.0811 28.0566 19.3369 28.1309 17.1846C28.3411 12.8675 27.4691 9.55241 25.5146 7.23926C23.5726 4.91374 20.6904 3.75098 16.8682 3.75098C14.4808 3.75098 12.3532 4.3571 10.4854 5.56934C8.61751 6.78158 7.14551 8.50716 6.06934 10.7461C4.99316 12.9727 4.38704 15.527 4.25098 18.4092C4.05306 22.7881 4.93132 26.1712 6.88574 28.5586C8.84017 30.9583 11.7656 32.1582 15.6621 32.1582C16.6888 32.1582 17.765 32.0407 18.8906 31.8057C20.0163 31.583 20.9873 31.2799 21.8037 30.8965L22.5088 33.7539C21.7542 34.2487 20.7337 34.6445 19.4473 34.9414C18.1732 35.2507 16.8867 35.4053 15.5879 35.4053C12.3223 35.4053 9.53906 34.7435 7.23828 33.4199C4.9375 32.1087 3.2181 30.1667 2.08008 27.5938C0.954427 25.0332 0.46582 21.9717 0.614258 18.4092C0.762695 14.9951 1.54199 11.9336 2.95215 9.22461C4.3623 6.51562 6.27962 4.42513 8.7041 2.95312C11.141 1.46875 13.887 0.726562 16.9424 0.726562C20.0472 0.726562 22.7191 1.39453 24.958 2.73047C27.1969 4.05404 28.873 5.9528 29.9863 8.42676C31.0996 10.9007 31.5882 13.7767 31.4521 17.0547ZM12.8047 19.0215C12.6686 20.6543 12.8109 21.8975 13.2314 22.751C13.652 23.5921 14.3324 24.0127 15.2725 24.0127C15.8786 24.0127 16.4538 23.7467 16.998 23.2148C17.5423 22.6829 17.9938 21.916 18.3525 20.9141L19.1318 12.1377C18.6494 11.9769 18.1546 11.8965 17.6475 11.8965C16.2249 11.8965 15.1178 12.5026 14.3262 13.7148C13.5469 14.9271 13.0397 16.696 12.8047 19.0215Z" fill="#00CD9B"/>
</svg>
