<svg width="35" height="35" viewBox="0 0 35 35" fill="none" xmlns="http://www.w3.org/2000/svg">
<g clip-path="url(#clip0)">
<path d="M32.6523 9.14396C31.0874 6.46271 28.9647 4.33996 26.2837 2.77523C23.6023 1.21043 20.675 0.428223 17.4997 0.428223C14.3249 0.428223 11.3966 1.21067 8.71574 2.77523C6.03449 4.33988 3.9119 6.46271 2.34701 9.14396C0.782364 11.8251 0 14.753 0 17.9275C0 21.7407 1.11253 25.1697 3.33816 28.2153C5.56354 31.2611 8.43841 33.3687 11.9625 34.5383C12.3727 34.6144 12.6764 34.5609 12.8739 34.379C13.0714 34.1969 13.17 33.9688 13.17 33.6957C13.17 33.6501 13.1661 33.2401 13.1585 32.4652C13.1507 31.6904 13.147 31.0144 13.147 30.4376L12.6229 30.5283C12.2888 30.5895 11.8672 30.6154 11.3583 30.6081C10.8496 30.601 10.3215 30.5477 9.77472 30.4486C9.22771 30.3503 8.71893 30.1225 8.24798 29.7655C7.77727 29.4085 7.44311 28.9412 7.24559 28.3644L7.01773 27.84C6.86586 27.4909 6.62675 27.1031 6.30009 26.6781C5.97344 26.2526 5.64311 25.9642 5.30895 25.8123L5.14941 25.6981C5.04311 25.6222 4.94446 25.5307 4.85324 25.4244C4.7621 25.3182 4.69387 25.2119 4.64829 25.1055C4.60264 24.9989 4.64047 24.9115 4.76218 24.843C4.88389 24.7744 5.10384 24.7411 5.423 24.7411L5.87854 24.8092C6.18238 24.8701 6.5582 25.052 7.00648 25.356C7.45453 25.6597 7.82284 26.0546 8.11151 26.5405C8.46107 27.1635 8.88222 27.6382 9.37616 27.9648C9.8697 28.2915 10.3673 28.4545 10.8685 28.4545C11.3697 28.4545 11.8026 28.4166 12.1673 28.341C12.5316 28.265 12.8735 28.1508 13.1926 27.999C13.3293 26.9808 13.7015 26.1986 14.309 25.6518C13.4432 25.5608 12.6648 25.4238 11.9735 25.2416C11.2825 25.0592 10.5684 24.7631 9.83179 24.3525C9.09475 23.9426 8.48334 23.4335 7.99738 22.8261C7.51135 22.2185 7.11247 21.4207 6.80129 20.4335C6.48996 19.446 6.33425 18.3068 6.33425 17.0156C6.33425 15.1773 6.93441 13.6128 8.1345 12.3215C7.57232 10.9394 7.6254 9.39001 8.29387 7.67349C8.73442 7.53662 9.38773 7.63933 10.2535 7.98099C11.1194 8.32281 11.7534 8.61563 12.1561 8.85841C12.5588 9.10111 12.8815 9.30677 13.1246 9.47357C14.5376 9.07876 15.9958 8.88131 17.4996 8.88131C19.0033 8.88131 20.4618 9.07876 21.8749 9.47357L22.7408 8.92696C23.3329 8.56224 24.0321 8.228 24.8367 7.92417C25.6418 7.6205 26.2574 7.53686 26.683 7.67373C27.3663 9.39033 27.4272 10.9397 26.8649 12.3218C28.0649 13.6131 28.6653 15.1779 28.6653 17.0159C28.6653 18.307 28.509 19.4498 28.1981 20.4449C27.8869 21.4402 27.4846 22.2372 26.991 22.8375C26.4969 23.4378 25.8816 23.9429 25.145 24.3528C24.4082 24.763 23.6939 25.0591 23.0029 25.2415C22.3116 25.424 21.5333 25.5611 20.6675 25.6522C21.4571 26.3355 21.852 27.4142 21.852 28.8876V33.695C21.852 33.9681 21.947 34.1961 22.1371 34.3783C22.3269 34.5602 22.6268 34.6138 23.037 34.5376C26.5616 33.3681 29.4365 31.2605 31.6618 28.2146C33.8868 25.1691 34.9998 21.7401 34.9998 17.9268C34.999 14.7528 34.2162 11.8251 32.6523 9.14396Z" fill="#04DEA9"/>
</g>
<defs>
<clipPath id="clip0">
<rect width="35" height="35" fill="white"/>
</clipPath>
</defs>
</svg>
