<svg width="30" height="30" viewBox="0 0 30 30" fill="none" xmlns="http://www.w3.org/2000/svg">
<rect width="30" height="30" fill="#9A52CC"/>
<path d="M12.4512 18.3809H8.92676L8.24121 21H5.50781L9.50684 8.20312H11.8711L15.8965 21H13.1367L12.4512 18.3809ZM9.48926 16.2275H11.8799L10.6846 11.666L9.48926 16.2275ZM20.8184 21.1758C19.541 21.1758 18.5449 20.7949 17.8301 20.0332C17.1152 19.2715 16.7578 18.1816 16.7578 16.7637V16.0078C16.7578 14.5078 17.0859 13.3506 17.7422 12.5361C18.3984 11.7217 19.3389 11.3145 20.5635 11.3145C21.7588 11.3145 22.6582 11.6982 23.2617 12.4658C23.8652 13.2275 24.1729 14.3584 24.1846 15.8584V17.0801H19.2363C19.2715 17.7832 19.4268 18.2988 19.7021 18.627C19.9775 18.9492 20.4023 19.1104 20.9766 19.1104C21.8086 19.1104 22.5029 18.8262 23.0596 18.2578L24.0352 19.7607C23.7305 20.1826 23.2881 20.5254 22.708 20.7891C22.1279 21.0469 21.498 21.1758 20.8184 21.1758ZM19.2539 15.3398H21.7412V15.1113C21.7295 14.543 21.6357 14.1123 21.46 13.8193C21.2842 13.5264 20.9795 13.3799 20.5459 13.3799C20.1123 13.3799 19.7959 13.5352 19.5967 13.8457C19.4033 14.1562 19.2891 14.6543 19.2539 15.3398Z" fill="white"/>
</svg>
